<svg width="256" height="256" fill="none" xmlns="http://www.w3.org/2000/svg">
 <style>
    path { fill: #150C1D; }
    @media (prefers-color-scheme: dark) {
      path { fill: #ffffff; }
    }
  </style>
<path fill-rule="nonzero" d="M121.892 4.574c1.532-6.098 9.964-6.099 11.496 0l18.308 72.886 39.701-24.05c5.282-3.2 11.245 2.923 8.129 8.348l-23.702 41.265 72.002 19.074c5.938 1.573 5.938 10.233 0 11.806l-71.62 18.973 23.32 40.599c3.116 5.425-2.847 11.548-8.129 8.348l-39.534-23.948-18.475 73.551c-1.532 6.098-9.964 6.099-11.496 0l-18.574-73.943-40.181 24.34c-5.282 3.2-11.245-2.923-8.129-8.348l23.418-40.77-70.973-18.802c-5.937-1.573-5.937-10.233 0-11.806l71.356-18.903-23.801-41.436c-3.116-5.425 2.847-11.548 8.129-8.348l40.348 24.442 18.407-73.278Zm15.246 112.488-10.074-26.231-10.075 26.231-25.543 10.346 25.543 10.346 10.075 26.232 10.074-26.232 25.543-10.346-25.543-10.346Z"/>
</svg>