<svg width="144" height="39" viewBox="0 0 144 39" fill="none" xmlns="http://www.w3.org/2000/svg">
<path fill-rule="evenodd" clip-rule="evenodd" d="M19.1549 1.42888C18.9299 0.523705 17.6911 0.523707 17.4661 1.42888L14.762 12.3061L8.83456 8.67798C8.05861 8.20303 7.18264 9.11199 7.64036 9.91716L11.1369 16.0679L0.654245 18.8738C-0.218083 19.1073 -0.218081 20.3927 0.654247 20.6262L11.0807 23.4171L7.64035 29.469C7.18264 30.2742 8.05862 31.1831 8.83456 30.7082L14.7374 27.0951L17.4661 38.0711C17.6911 38.9763 18.9299 38.9763 19.1549 38.0711L21.8691 27.1533L27.6769 30.7082C28.4528 31.1831 29.3288 30.2741 28.8711 29.469L25.4452 23.4425L35.9667 20.6262C36.8391 20.3927 36.8391 19.1073 35.9667 18.8738L25.389 16.0424L28.8711 9.91715C29.3288 9.11199 28.4528 8.20303 27.6769 8.67798L21.8445 12.2479L19.1549 1.42888ZM18.2258 14.2327L19.7058 18.1265L23.4583 19.6621L19.7058 21.1978L18.2258 25.0916L16.7459 21.1978L12.9934 19.6621L16.7459 18.1265L18.2258 14.2327ZM43.7135 8.2606V31.0644H47.8576V22.7247H52.7552C54.0947 22.7247 55.2877 22.4424 56.3342 21.8777C57.4016 21.2913 58.2388 20.4769 58.8457 19.4345C59.4736 18.3703 59.7876 17.1324 59.7876 15.7207V15.2646C59.7876 13.8312 59.4841 12.5933 58.8771 11.5509C58.2911 10.5084 57.4644 9.70484 56.397 9.14017C55.3505 8.55379 54.1365 8.2606 52.7552 8.2606H43.7135ZM52.3471 18.8155H47.8576V12.1698H52.3471C53.3308 12.1698 54.1261 12.4522 54.733 13.0168C55.34 13.5815 55.6435 14.3525 55.6435 15.3298V15.6555C55.6435 16.6328 55.34 17.4038 54.733 17.9685C54.1261 18.5332 53.3308 18.8155 52.3471 18.8155ZM62.7863 14.9063V31.0644H66.742V21.8777C66.742 20.7267 67.0664 19.8797 67.7152 19.3367C68.364 18.7721 69.1908 18.4897 70.1954 18.4897H72.1419V14.8411H70.2582C69.5466 14.8411 68.9187 14.9931 68.3745 15.2972C67.8513 15.6012 67.4745 16.079 67.2443 16.7306H66.6792V14.9063H62.7863ZM82.091 31.5205C80.5422 31.5205 79.1504 31.1947 77.9155 30.5432C76.6807 29.8916 75.7074 28.9469 74.9958 27.709C74.2842 26.4711 73.9284 24.9834 73.9284 23.2459V22.7247C73.9284 20.9873 74.2842 19.4996 74.9958 18.2617C75.7074 17.0238 76.6807 16.079 77.9155 15.4275C79.1504 14.776 80.5422 14.4502 82.091 14.4502C83.6398 14.4502 85.0316 14.776 86.2665 15.4275C87.5014 16.079 88.4746 17.0238 89.1862 18.2617C89.8978 19.4996 90.2536 20.9873 90.2536 22.7247V23.2459C90.2536 24.9834 89.8978 26.4711 89.1862 27.709C88.4746 28.9469 87.5014 29.8916 86.2665 30.5432C85.0316 31.1947 83.6398 31.5205 82.091 31.5205ZM82.091 27.8719C83.3049 27.8719 84.3096 27.4701 85.1049 26.6665C85.9002 25.8412 86.2979 24.6685 86.2979 23.1482V22.8224C86.2979 21.3022 85.9002 20.1403 85.1049 19.3367C84.3305 18.5114 83.3259 18.0988 82.091 18.0988C80.8771 18.0988 79.8725 18.5114 79.0771 19.3367C78.2818 20.1403 77.8841 21.3022 77.8841 22.8224V23.1482C77.8841 24.6685 78.2818 25.8412 79.0771 26.6665C79.8725 27.4701 80.8771 27.8719 82.091 27.8719ZM91.7804 14.9063L96.7408 31.0644H103.02L107.98 14.9063H103.773L100.163 28.0673H99.5977L95.9873 14.9063H91.7804ZM117.341 31.5205C115.793 31.5205 114.422 31.1838 113.229 30.5106C112.057 29.8156 111.136 28.8492 110.466 27.6112C109.817 26.3516 109.493 24.8748 109.493 23.1808V22.7899C109.493 21.0959 109.817 19.6299 110.466 18.392C111.115 17.1324 112.025 16.1659 113.197 15.4927C114.369 14.7977 115.73 14.4502 117.279 14.4502C118.806 14.4502 120.135 14.8085 121.266 15.5252C122.396 16.2202 123.275 17.1975 123.903 18.4572C124.531 19.6951 124.845 21.1393 124.845 22.7899V24.1907H113.511C113.553 25.2983 113.951 26.1996 114.704 26.8946C115.458 27.5895 116.379 27.937 117.467 27.937C118.576 27.937 119.392 27.6873 119.916 27.1877C120.439 26.6882 120.837 26.1344 121.109 25.5263L124.342 27.2855C124.049 27.8501 123.62 28.4691 123.055 29.1424C122.511 29.7939 121.778 30.3586 120.858 30.8364C119.937 31.2924 118.765 31.5205 117.341 31.5205ZM113.543 21.1285H120.826C120.742 20.1946 120.376 19.4453 119.727 18.8807C119.099 18.316 118.273 18.0337 117.247 18.0337C116.18 18.0337 115.332 18.316 114.704 18.8807C114.076 19.4453 113.689 20.1946 113.543 21.1285ZM131.16 30.5757C132.248 31.2056 133.41 31.5205 134.644 31.5205C136.068 31.5205 137.146 31.2707 137.878 30.7712C138.632 30.2717 139.186 29.7179 139.542 29.1098H140.107V31.0644H144V8.2606H140.044V16.7632H139.479C139.144 16.1985 138.611 15.6773 137.878 15.1995C137.146 14.7 136.068 14.4502 134.644 14.4502C133.389 14.4502 132.227 14.776 131.16 15.4275C130.092 16.0573 129.234 16.9912 128.585 18.2291C127.936 19.467 127.612 20.9656 127.612 22.7247V23.2459C127.612 25.0051 127.936 26.5036 128.585 27.7416C129.234 28.9795 130.092 29.9242 131.16 30.5757ZM138.883 26.7317C138.066 27.5352 137.051 27.937 135.837 27.937C134.623 27.937 133.608 27.5352 132.792 26.7317C131.976 25.9064 131.568 24.7119 131.568 23.1482V22.8224C131.568 21.2588 131.976 20.0751 132.792 19.2716C133.608 18.4463 134.623 18.0337 135.837 18.0337C137.072 18.0337 138.087 18.4463 138.883 19.2716C139.699 20.0751 140.107 21.2588 140.107 22.8224V23.1482C140.107 24.7119 139.699 25.9064 138.883 26.7317Z" fill="#FAFAFF"/>
</svg>
