<svg width="512" height="512" viewBox="0 0 512 512" fill="none" xmlns="http://www.w3.org/2000/svg">
<path fill-rule="evenodd" clip-rule="evenodd" d="M256 0C114.615 0 0 114.615 0 256C0 397.385 114.615 512 256 512C397.385 512 512 397.385 512 256C512 114.615 397.385 0 256 0Z" fill="white"/>
<path fill-rule="evenodd" clip-rule="evenodd" d="M144 174.206C144 184.988 151.467 194.026 161.512 196.431C167.714 222.291 184.212 244.147 206.429 257.422C215.231 262.681 220.697 272.816 218.006 282.711L186.298 399.277C181.17 418.133 195.366 436.706 214.906 436.706H297.92C317.46 436.706 331.656 418.134 326.529 399.28L294.828 282.702C292.138 272.809 297.602 262.677 306.403 257.417C328.616 244.142 345.11 222.288 351.312 196.431C361.357 194.026 368.824 184.988 368.824 174.206C368.824 163.533 361.507 154.569 351.617 152.056C341.812 108.519 302.91 76 256.412 76C209.914 76 171.011 108.519 161.207 152.056C151.316 154.569 144 163.533 144 174.206ZM213.98 184.138C224.657 186.407 235.382 178.509 237.936 166.497C240.489 154.486 233.903 142.908 223.226 140.639C212.549 138.369 201.823 146.267 199.27 158.279C196.717 170.291 203.303 181.868 213.98 184.138ZM275.108 166.497C277.661 178.509 288.387 186.407 299.064 184.138C309.741 181.868 316.327 170.291 313.774 158.279C311.221 146.267 300.495 138.369 289.818 140.639C279.141 142.908 272.555 154.486 275.108 166.497Z" fill="black"/>
</svg>
