<?xml version="1.0" standalone="no"?>
<!DOCTYPE svg PUBLIC "-//W3C//DTD SVG 20010904//EN"
 "http://www.w3.org/TR/2001/REC-SVG-20010904/DTD/svg10.dtd">
<svg version="1.0" xmlns="http://www.w3.org/2000/svg"
 width="256.000000pt" height="256.000000pt" viewBox="0 0 256.000000 256.000000"
 preserveAspectRatio="xMidYMid meet">
<metadata>
Created by potrace 1.14, written by Peter Selinger 2001-2017
</metadata>
<g transform="translate(0.000000,256.000000) scale(0.100000,-0.100000)"
fill="#000000" stroke="none">
<path d="M1237 2543 c-8 -10 -57 -185 -109 -390 l-93 -371 -95 58 c-52 32
-117 71 -145 86 -27 14 -52 30 -55 34 -3 4 -34 23 -70 43 -58 32 -68 35 -90
24 -46 -23 -47 -56 -5 -128 21 -35 49 -84 63 -109 14 -25 51 -91 84 -147 60
-105 67 -122 46 -124 -19 -1 -34 -5 -123 -29 -44 -12 -98 -26 -120 -32 -51
-12 -62 -15 -105 -27 -19 -5 -103 -27 -185 -49 -172 -45 -192 -53 -201 -87
-14 -58 -3 -63 380 -164 197 -52 359 -98 361 -101 2 -3 -50 -100 -116 -215
-65 -114 -119 -214 -119 -220 0 -19 40 -65 56 -65 8 0 108 56 222 125 113 68
210 121 214 117 5 -5 10 -17 12 -28 3 -10 44 -176 92 -367 76 -303 90 -350
110 -364 32 -21 69 -10 82 24 9 21 119 451 147 573 23 99 43 165 49 164 4 -1
69 -38 144 -84 267 -162 267 -161 296 -150 15 5 30 20 35 32 10 28 -5 61 -162
329 -69 120 -77 139 -53 139 36 0 720 189 727 201 14 23 10 65 -9 81 -9 9
-174 57 -367 108 -192 51 -355 95 -362 98 -8 5 21 64 89 182 143 248 148 259
135 287 -10 23 -41 39 -65 34 -7 -1 -55 -27 -105 -58 -134 -81 -137 -83 -227
-136 -45 -27 -83 -47 -84 -45 -2 2 -42 161 -90 353 -47 193 -91 362 -97 377
-10 23 -34 37 -65 38 -6 0 -18 -8 -27 -17z m71 -991 c65 -172 56 -161 178
-210 60 -23 115 -46 122 -51 8 -5 -30 -25 -108 -56 -67 -27 -125 -54 -129 -60
-4 -5 -28 -63 -52 -127 -24 -65 -46 -118 -49 -118 -3 0 -25 54 -50 121 -24 66
-49 124 -55 129 -10 7 -149 69 -170 75 -5 1 -25 8 -44 15 -40 15 -42 14 99 71
58 23 110 45 115 50 6 4 30 62 55 128 25 67 47 121 50 121 3 0 20 -39 38 -88z"/>
</g>
</svg>
